<?xml version="1.0" standalone="no"?>
<!DOCTYPE svg PUBLIC "-//W3C//DTD SVG 20010904//EN"
 "http://www.w3.org/TR/2001/REC-SVG-20010904/DTD/svg10.dtd">
<svg version="1.0" xmlns="http://www.w3.org/2000/svg"
 width="323.000000pt" height="423.000000pt" viewBox="0 0 323.000000 423.000000"
 preserveAspectRatio="xMidYMid meet">
<metadata>
Created by potrace 1.15, written by Peter Selinger 2001-2017
</metadata>
<g transform="translate(0.000000,423.000000) scale(0.100000,-0.100000)"
fill="#000000" stroke="none">
<path d="M1472 4144 c3 -3 25 -7 49 -9 31 -2 38 -1 24 5 -22 10 -81 13 -73 4z"/>
<path d="M1334 4129 c-3 -6 -1 -16 5 -22 9 -9 10 -8 5 7 -7 18 -6 18 18 2 21
-14 39 -15 92 -10 44 5 66 3 66 -4 0 -7 11 -7 36 0 45 12 105 -8 179 -61 120
-87 129 -91 208 -91 80 0 176 -25 159 -42 -9 -9 -28 -7 -122 17 -19 5 -18 3 6
-8 17 -8 51 -18 75 -22 24 -4 52 -14 61 -22 9 -8 23 -13 30 -10 8 3 6 6 -5 6
-10 1 -15 6 -12 11 4 6 1 9 -6 8 -6 -2 -14 3 -16 10 -11 28 24 8 69 -40 52
-57 57 -68 31 -68 -20 0 -45 14 -44 24 3 23 0 30 -8 18 -6 -11 -11 -10 -25 3
-9 9 -16 13 -16 8 0 -4 -4 -1 -10 7 -5 8 -12 12 -15 8 -8 -8 64 -64 95 -73 14
-4 35 -16 47 -27 17 -16 28 -18 55 -12 18 4 37 7 41 6 5 -2 6 2 3 7 -6 10 -20
9 -49 -4 -22 -9 -58 20 -50 41 7 20 -72 111 -103 118 -19 5 -24 10 -16 18 11
11 75 -21 89 -46 5 -7 30 -25 56 -40 27 -14 46 -22 42 -16 -3 6 -24 19 -46 30
-21 11 -39 26 -39 32 0 9 3 9 12 0 15 -15 28 -16 28 -2 0 6 -7 10 -15 10 -8 0
-15 7 -15 15 0 8 -5 15 -11 15 -5 0 -7 5 -4 10 4 6 11 7 17 4 7 -4 8 -2 4 5
-4 6 -11 9 -16 6 -5 -3 -33 10 -61 30 -54 37 -69 42 -69 24 0 -5 4 -8 8 -5 14
8 74 -33 66 -46 -4 -7 -3 -8 4 -4 7 4 12 2 12 -5 0 -7 3 -9 7 -6 3 4 12 -1 19
-11 22 -29 16 -34 -15 -13 -16 12 -33 21 -39 21 -5 0 -16 8 -23 17 -12 15 -12
16 6 9 11 -4 16 -4 12 1 -5 4 -22 12 -40 18 -18 6 -32 17 -31 25 1 10 -10 16
-29 17 -17 1 -35 8 -41 14 -18 18 71 0 139 -29 33 -14 77 -37 98 -50 20 -14
40 -23 42 -20 10 9 -69 54 -145 83 -68 27 -86 29 -190 28 -63 -1 -126 -6 -140
-12 -21 -9 -17 -10 20 -4 66 10 162 6 174 -8 8 -8 2 -10 -26 -7 -20 2 -35 1
-32 -3 2 -4 19 -9 38 -11 19 -2 32 0 30 4 -3 4 4 8 15 8 11 0 25 -9 31 -20 6
-11 17 -20 25 -20 8 0 19 -9 25 -19 14 -26 -6 -32 -49 -15 -18 8 -67 14 -108
14 l-75 0 -91 62 c-130 87 -159 96 -292 93 -80 -2 -116 1 -132 11 -15 9 -24
10 -29 3z"/>
<path d="M1265 4091 l20 -8 -20 -5 c-19 -5 -19 -6 1 -7 13 -1 24 -9 27 -21 4
-17 14 -20 58 -20 l54 0 -37 -20 c-44 -23 -153 -46 -256 -54 -108 -8 -148 -31
-292 -173 -69 -68 -156 -154 -193 -191 -67 -65 -144 -169 -139 -185 1 -5 -13
-26 -32 -48 -23 -28 -36 -55 -41 -87 -4 -25 -24 -98 -46 -162 -21 -63 -42
-133 -46 -155 -11 -66 -4 -296 11 -365 16 -70 27 -290 15 -290 -4 0 -9 4 -11
9 -2 5 -18 4 -38 -3 -51 -16 -64 -50 -51 -134 5 -37 13 -134 16 -217 4 -82 13
-195 21 -250 8 -55 19 -138 25 -185 12 -85 12 -85 65 -135 52 -50 53 -50 69
-145 28 -168 39 -214 71 -307 13 -40 23 -76 22 -80 -1 -4 4 -19 12 -33 8 -14
17 -45 21 -70 5 -25 13 -70 20 -100 6 -30 12 -93 12 -140 0 -56 2 -74 7 -54 4
17 6 47 4 65 -4 55 3 71 27 56 21 -13 25 -43 7 -50 -10 -4 -10 -6 0 -6 6 -1
12 -7 12 -14 0 -19 60 -71 88 -77 13 -3 31 -18 40 -35 18 -32 31 -45 47 -45 6
0 4 4 -3 8 -7 5 -21 24 -31 43 -11 20 -28 36 -42 39 -13 3 -39 18 -57 34 -28
25 -32 36 -33 80 0 28 -3 45 -6 38 -9 -23 -65 26 -63 57 1 14 1 29 0 34 -1 4
-3 11 -4 16 0 5 -4 13 -9 17 -4 4 -7 19 -7 33 0 26 -21 99 -46 159 -8 18 -14
41 -14 52 0 10 -4 21 -9 24 -9 6 -36 124 -32 140 1 6 -2 19 -7 30 -6 12 -16
61 -23 109 -12 87 -13 88 -60 128 -54 45 -55 47 -69 144 -33 229 -39 285 -45
430 -4 88 -11 180 -15 205 -5 25 -7 47 -5 49 2 2 16 -10 30 -25 24 -26 27 -35
23 -82 -3 -30 -10 -57 -17 -62 -9 -5 -10 -9 -2 -14 27 -17 44 127 19 153 -11
10 -9 15 6 27 11 7 17 16 14 20 -3 3 -12 -1 -19 -9 -16 -16 -45 -11 -53 10 -3
8 6 25 20 40 20 20 31 24 58 19 l33 -6 -4 117 c-2 65 -11 150 -19 188 -15 73
-22 290 -12 361 4 23 11 50 17 60 15 27 67 202 76 251 4 25 19 56 41 81 19 22
34 45 34 52 0 23 70 116 137 182 37 37 122 121 188 186 154 152 184 170 311
182 136 14 202 26 230 45 13 8 34 15 46 16 13 0 32 5 43 10 16 7 13 8 -12 4
-18 -2 -33 0 -33 5 0 6 -22 10 -49 10 -28 0 -53 5 -57 12 -5 8 -2 9 9 5 25
-10 20 2 -5 14 -17 7 -11 8 27 3 28 -3 64 -7 82 -9 18 -2 57 -13 88 -24 66
-25 71 -26 51 -6 -8 8 -23 15 -33 15 -10 0 -37 7 -60 15 -23 8 -49 12 -58 9
-8 -3 -15 -2 -15 4 0 5 -10 9 -22 9 -13 -1 -45 2 -73 6 -30 4 -42 3 -30 -2z"/>
<path d="M1523 4083 c-13 -2 -23 -8 -23 -13 0 -5 6 -7 14 -4 8 3 34 -3 59 -14
34 -15 53 -18 83 -11 l39 8 -40 -3 c-40 -3 -121 25 -108 37 3 4 4 6 2 6 -2 -1
-14 -4 -26 -6z"/>
<path d="M2080 4066 c25 -7 54 -17 65 -20 12 -5 10 -2 -5 7 -14 9 -43 18 -65
21 l-40 6 45 -14z"/>
<path d="M1272 4020 c0 -14 2 -19 5 -12 2 6 2 18 0 25 -3 6 -5 1 -5 -13z"/>
<path d="M2257 3933 c-3 -5 13 -20 34 -35 22 -15 39 -24 39 -19 0 13 -68 62
-73 54z"/>
<path d="M2301 3858 c41 -35 100 -143 86 -157 -8 -8 -8 -11 1 -11 27 0 21 30
-17 97 -26 44 -51 74 -68 82 l-28 12 26 -23z"/>
<path d="M2429 3867 c14 -6 33 -27 44 -45 l19 -32 -36 -15 c-40 -17 -48 -26
-14 -17 34 8 68 28 62 35 -3 3 16 8 43 12 77 10 83 15 13 10 l-65 -5 -19 35
c-14 26 -26 35 -45 35 l-26 0 24 -13z"/>
<path d="M2450 3823 c0 -7 -6 -13 -13 -13 -8 0 -22 -9 -32 -20 -10 -11 -13
-20 -8 -20 6 0 16 6 23 14 6 8 20 16 30 18 15 2 17 7 10 18 -6 10 -10 11 -10
3z"/>
<path d="M2520 3739 c12 -16 19 -33 15 -37 -4 -4 -10 -2 -12 5 -2 7 -10 10
-18 7 -18 -7 -31 16 -14 27 9 6 10 9 2 9 -6 0 -15 -4 -18 -10 -3 -5 -11 -10
-16 -10 -6 0 -7 4 -4 10 3 5 0 7 -9 4 -8 -3 -12 -12 -9 -20 3 -8 0 -14 -7 -14
-6 0 -8 -5 -4 -12 5 -8 11 -6 20 6 11 16 40 14 30 -2 -2 -4 12 -7 32 -7 31 0
42 -6 73 -43 20 -23 49 -51 66 -60 60 -34 68 -41 60 -48 -10 -10 -83 27 -118
60 -25 23 -129 64 -184 72 -16 2 10 -9 60 -26 49 -17 101 -41 115 -54 37 -35
92 -66 117 -66 12 0 38 -14 58 -31 28 -25 33 -34 24 -45 -7 -9 -8 -14 -1 -14
5 0 13 8 17 18 5 12 -5 27 -34 53 -23 20 -41 41 -41 45 0 10 -64 54 -78 54 -9
0 -66 68 -102 122 -14 21 -29 38 -33 38 -5 0 1 -14 13 -31z"/>
<path d="M2760 3580 c-23 -5 -28 -8 -12 -9 15 -1 22 -8 23 -23 1 -22 1 -22 8
2 6 19 13 25 34 23 62 -4 145 -66 157 -116 l8 -32 1 32 c2 71 -126 143 -219
123z"/>
<path d="M2708 3493 c6 -2 12 -9 12 -14 0 -6 -8 -6 -19 1 -46 24 -56 -2 -17
-39 14 -13 26 -35 28 -49 2 -19 15 -33 43 -49 28 -15 43 -33 52 -59 7 -21 20
-45 28 -54 19 -21 42 -102 44 -155 1 -22 9 -47 18 -57 16 -18 20 -90 9 -178
-13 -103 -24 -305 -28 -510 -1 -104 -2 -106 -40 -162 -23 -34 -47 -58 -60 -61
l-23 -4 22 -2 c26 -1 66 38 90 89 14 31 17 33 24 15 5 -14 8 -15 8 -5 1 9 -3
20 -7 25 -12 15 6 476 23 615 11 86 8 159 -9 184 -8 14 -16 40 -17 58 -3 50
-24 117 -58 181 -33 64 -33 101 1 70 11 -9 17 -25 15 -35 -3 -10 -1 -18 4 -18
5 0 9 7 9 15 0 8 6 15 13 15 6 0 -1 10 -16 22 -26 19 -60 63 -94 122 l-13 21
0 -21 c0 -12 7 -27 16 -35 24 -20 43 -64 35 -78 -6 -9 -11 -10 -15 -2 -4 6 -4
16 -1 21 3 6 2 10 -4 10 -5 0 -11 -5 -13 -10 -6 -18 -48 20 -48 44 0 12 -11
33 -25 46 -14 13 -23 26 -20 28 8 8 55 -40 56 -57 0 -10 3 -11 5 -4 3 7 0 21
-6 32 -8 16 -8 21 1 21 8 0 8 4 -1 15 -7 8 -18 15 -24 14 -7 0 -6 -2 2 -6z"/>
<path d="M2881 3277 c-1 -13 29 -67 37 -67 5 0 13 -17 19 -37 l11 -38 -5 39
c-3 21 -13 46 -22 56 -9 9 -21 25 -28 36 -6 10 -12 15 -12 11z"/>
<path d="M2023 3232 c-6 -4 14 -8 45 -8 120 -2 166 -10 206 -37 40 -28 62 -35
51 -17 -3 6 -11 10 -17 10 -7 0 -22 10 -34 21 -13 13 -39 23 -61 24 -21 2 -69
6 -108 9 -38 3 -75 2 -82 -2z"/>
<path d="M1915 3185 c-16 -14 -39 -25 -51 -25 -11 0 -45 -13 -75 -30 -36 -19
-85 -34 -140 -43 -50 -8 -105 -24 -134 -40 -152 -80 -265 -103 -335 -66 -9 4
-40 4 -70 -1 l-55 -8 60 0 c33 0 84 -5 113 -12 39 -8 63 -8 84 -1 17 6 39 11
49 11 10 0 65 22 121 48 68 32 128 53 177 61 41 6 102 25 135 41 60 30 103 39
91 20 -3 -5 -15 -10 -26 -10 -11 0 -17 -4 -14 -10 9 -14 21 -12 39 6 14 13 22
14 54 4 64 -20 101 -40 112 -60 6 -12 21 -20 36 -20 13 0 35 -7 48 -15 13 -9
48 -18 77 -21 30 -3 77 -7 104 -10 28 -3 48 -3 45 -1 -5 6 -58 13 -141 21 -25
2 -60 11 -77 20 -17 9 -40 16 -52 16 -11 0 -23 7 -27 15 -7 19 -62 48 -125 65
-26 7 -45 17 -42 22 3 5 9 7 12 4 3 -4 15 2 26 13 12 11 35 21 51 24 29 4 28
4 -5 5 -24 1 -45 -7 -65 -23z"/>
<path d="M2195 3192 c14 -15 127 -74 131 -69 6 6 -32 30 -81 52 -22 10 -44 21
-50 23 -7 3 -7 1 0 -6z"/>
<path d="M2340 3135 c0 -8 7 -15 15 -15 8 0 17 -10 20 -22 4 -13 22 -34 40
-48 19 -14 35 -28 35 -33 0 -11 63 -66 75 -66 6 0 -7 15 -27 34 -21 20 -38 39
-38 43 0 4 -16 18 -35 32 -19 14 -35 30 -35 36 0 6 -11 20 -25 32 -19 17 -25
18 -25 7z"/>
<path d="M2915 3100 c11 -12 16 -29 13 -44 -3 -14 -1 -23 3 -20 21 12 1 84
-23 84 -6 0 -3 -9 7 -20z"/>
<path d="M2340 3100 c0 -5 5 -10 11 -10 5 0 7 5 4 10 -3 6 -8 10 -11 10 -2 0
-4 -4 -4 -10z"/>
<path d="M1805 3090 l-40 -8 48 1 c27 0 50 4 53 9 6 9 -3 9 -61 -2z"/>
<path d="M632 3078 c-15 -20 -52 -96 -52 -109 0 -6 -9 -23 -19 -38 -15 -21
-17 -28 -6 -28 8 0 13 3 13 6 -3 11 55 133 75 158 7 10 15 8 34 -7 14 -11 32
-20 39 -20 8 0 14 -6 14 -13 0 -18 32 -47 51 -47 10 1 9 3 -3 11 -10 5 -18 14
-18 19 0 15 28 12 37 -3 4 -8 21 -17 36 -21 19 -4 26 -3 22 4 -3 5 -16 10 -28
10 -16 0 -18 3 -9 9 17 10 -40 23 -63 15 -9 -4 -15 0 -15 9 0 9 -12 18 -29 22
-16 3 -35 13 -42 21 -14 17 -24 18 -37 2z"/>
<path d="M1676 3039 c-22 -10 -51 -19 -65 -20 -35 0 -168 -55 -150 -61 8 -3
21 0 29 7 23 18 102 45 132 45 15 0 41 8 60 18 44 23 42 21 37 26 -2 2 -22 -4
-43 -15z"/>
<path d="M1025 3000 c-100 -31 -171 -43 -214 -37 -23 3 -39 1 -35 -4 13 -22
113 -9 257 33 38 11 80 18 93 15 13 -2 21 0 18 4 -8 14 -53 9 -119 -11z"/>
<path d="M2547 2953 c26 -47 27 -53 30 -227 1 -98 4 -181 7 -184 3 -2 4 80 2
184 -2 174 -4 192 -25 232 -13 23 -27 42 -32 42 -5 0 3 -21 18 -47z"/>
<path d="M1345 2936 c-66 -32 -53 -33 16 -2 30 14 50 25 44 25 -5 1 -32 -10
-60 -23z"/>
<path d="M2901 2934 c0 -11 3 -14 6 -6 3 7 2 16 -1 19 -3 4 -6 -2 -5 -13z"/>
<path d="M557 2824 c-3 -4 -2 -15 4 -26 6 -11 9 -28 6 -37 -2 -9 -1 -37 3 -61
6 -34 7 -26 4 30 -5 103 -5 105 -17 94z"/>
<path d="M2922 2765 c0 -16 2 -22 5 -12 2 9 2 23 0 30 -3 6 -5 -1 -5 -18z"/>
<path d="M522 2562 c-17 -53 -34 -123 -38 -155 -5 -49 -10 -60 -33 -71 -37
-19 -65 -52 -52 -61 6 -3 11 1 11 9 0 34 18 14 22 -24 3 -39 -7 -54 -18 -25
-4 8 -10 12 -15 9 -19 -11 19 -33 51 -29 38 5 53 15 22 15 -25 0 -29 5 -34 49
-2 26 2 36 17 45 29 16 33 24 40 90 4 33 16 85 27 116 29 85 40 122 36 126 -2
2 -18 -40 -36 -94z"/>
<path d="M2605 2525 c4 -17 13 -52 21 -80 21 -81 33 -128 39 -157 4 -20 14
-29 41 -38 36 -12 38 -17 19 -62 -5 -13 3 -22 37 -39 30 -15 39 -17 30 -6 -10
12 -10 16 0 21 7 3 2 3 -12 1 -14 -3 -31 -1 -39 4 -12 8 -12 13 2 35 15 22 15
26 1 40 -8 9 -23 16 -33 16 -25 0 -41 20 -41 52 0 15 -7 45 -15 65 -8 21 -21
67 -29 102 -8 34 -18 66 -21 69 -4 4 -4 -7 0 -23z"/>
<path d="M1227 2530 c13 -12 65 -22 59 -12 -3 6 -19 12 -36 14 -17 3 -27 1
-23 -2z"/>
<path d="M885 2517 c-11 -7 -40 -19 -65 -26 -68 -20 -145 -78 -163 -124 -4
-10 -18 -17 -34 -18 -15 0 -37 -4 -48 -8 -11 -5 -32 -5 -47 0 -16 4 -28 4 -28
-2 0 -5 11 -9 24 -9 25 0 44 -30 31 -49 -3 -5 0 -13 7 -17 18 -11 48 -12 48
-2 0 4 -8 8 -19 8 -26 0 -35 47 -10 60 10 6 27 10 38 10 26 0 51 10 51 21 0
29 109 111 165 125 17 4 36 12 44 18 8 6 53 14 100 17 l86 6 -80 1 c-53 1 -87
-3 -100 -11z"/>
<path d="M1074 2509 c-16 -18 -27 -20 -77 -17 -31 2 -52 1 -45 -4 7 -4 34 -8
60 -8 34 0 52 5 66 20 16 17 25 18 69 11 29 -4 57 -5 63 -1 6 4 -6 7 -27 8
-21 1 -50 4 -64 7 -18 4 -31 0 -45 -16z"/>
<path d="M1803 2513 c-7 -3 -13 -10 -13 -16 0 -8 3 -8 11 0 9 9 16 9 30 0 14
-9 21 -8 31 2 11 11 10 13 -2 9 -8 -3 -22 -2 -30 2 -8 4 -21 5 -27 3z"/>
<path d="M893 2481 c-10 -11 -36 -21 -58 -24 -22 -2 -8 -3 30 -3 39 0 62 2 53
4 -10 2 -18 6 -18 9 0 3 8 12 18 19 10 8 12 13 5 14 -7 0 -20 -9 -30 -19z"/>
<path d="M1284 2485 c15 -8 34 -15 41 -15 8 0 21 -8 31 -17 12 -12 16 -13 13
-4 -3 8 -12 18 -20 21 -8 4 -24 12 -36 18 -13 7 -31 12 -40 12 -12 0 -9 -5 11
-15z"/>
<path d="M1746 2491 c-3 -4 -5 -24 -4 -42 1 -37 -16 -79 -32 -79 -6 0 -10 -6
-10 -12 1 -19 50 40 51 60 1 9 0 27 0 39 -1 12 6 26 16 32 16 9 16 10 1 11 -9
0 -19 -4 -22 -9z"/>
<path d="M1945 2488 c-16 -6 -34 -17 -38 -24 -4 -8 -15 -14 -22 -14 -16 0 -60
-39 -53 -46 3 -2 14 5 26 16 12 11 28 20 36 20 8 0 19 6 23 13 24 39 109 47
159 16 19 -11 39 -19 45 -17 6 2 -9 14 -34 26 -47 24 -94 27 -142 10z"/>
<path d="M2115 2483 c11 -2 36 -10 56 -18 20 -8 55 -14 78 -13 23 0 50 -6 59
-14 9 -8 33 -21 52 -28 41 -16 110 -69 110 -84 1 -18 34 -52 68 -70 25 -13 32
-23 32 -46 0 -34 -23 -50 -69 -50 l-30 0 2 59 c1 34 -4 65 -11 73 -6 8 -9 18
-5 21 3 4 4 7 1 7 -2 0 -51 6 -109 14 -57 8 -169 17 -249 19 l-145 5 115 -8
c229 -18 345 -32 366 -45 12 -8 24 -26 27 -41 7 -38 -19 -233 -34 -250 -14
-17 -5 -44 15 -44 23 0 44 39 51 95 10 76 12 80 50 94 35 12 36 15 35 79 0 4
-16 16 -36 27 -20 11 -46 37 -58 58 -20 37 -96 97 -121 97 -7 0 -24 9 -39 21
-18 14 -41 21 -73 21 -26 0 -63 6 -82 14 -18 8 -43 13 -55 13 -20 -1 -20 -2
-1 -6z m377 -374 c-5 -55 -21 -106 -37 -119 -23 -19 -26 -9 -10 35 8 22 14 52
15 67 0 36 10 60 24 55 6 -2 10 -19 8 -38z"/>
<path d="M1320 2435 c13 -14 26 -23 28 -20 7 7 -29 45 -41 45 -6 0 0 -11 13
-25z"/>
<path d="M2060 2441 c0 -6 3 -11 8 -12 4 0 32 -2 62 -3 30 -2 82 -6 115 -9 49
-5 53 -5 20 3 -22 5 -73 11 -113 14 -40 3 -77 8 -82 11 -6 3 -10 1 -10 -4z"/>
<path d="M1089 2420 c-9 -5 -77 -10 -151 -11 -74 0 -141 -5 -149 -10 -10 -6
-10 -9 -1 -9 22 0 13 -20 -15 -32 -16 -6 -31 -11 -35 -10 -3 1 -9 -5 -12 -13
-4 -11 7 -9 40 8 32 15 44 26 41 38 -4 15 9 17 131 18 74 1 143 6 153 11 12 7
45 6 96 -2 62 -9 73 -13 53 -19 -16 -5 -8 -7 25 -4 33 3 42 2 25 -3 -21 -7
-15 -10 40 -21 83 -17 139 -41 133 -58 -3 -9 3 -13 18 -12 23 0 23 1 4 9 -12
5 36 7 120 5 l140 -4 -134 10 c-85 6 -142 14 -156 23 -12 8 -39 18 -60 22 -25
4 -33 9 -23 15 8 5 -3 7 -27 4 -29 -3 -33 -3 -15 3 20 7 9 11 -60 24 -130 25
-164 29 -181 18z"/>
<path d="M1117 2388 c17 -4 41 -4 53 0 16 6 8 8 -32 9 -47 0 -49 -1 -21 -9z"/>
<path d="M1895 2371 c-22 -4 48 -5 155 -3 108 2 214 -1 238 -6 23 -5 44 -6 47
-2 2 4 -19 10 -48 14 -64 7 -337 5 -392 -3z"/>
<path d="M1766 2349 c-20 -3 -42 -11 -49 -18 -9 -10 -5 -10 18 -1 17 7 68 12
115 12 85 1 85 5 -1 10 -26 2 -63 0 -83 -3z"/>
<path d="M1056 2314 c-83 -16 -184 -51 -214 -75 -14 -10 -32 -19 -41 -19 -27
0 -101 -93 -87 -108 3 -3 6 0 6 6 0 17 14 15 68 -11 26 -13 54 -21 61 -19 7 2
-13 15 -44 27 -31 13 -59 26 -62 29 -13 13 10 39 53 57 25 11 61 31 79 43 72
49 328 87 384 56 10 -5 38 -10 62 -11 24 -2 59 -9 77 -16 34 -14 52 -11 52 10
0 8 -3 8 -9 -1 -7 -12 -13 -11 -37 1 -16 8 -51 15 -78 16 -27 1 -54 5 -60 10
-17 14 -143 17 -210 5z"/>
<path d="M483 2313 c-7 -3 -13 -18 -13 -34 0 -22 5 -29 20 -29 15 0 20 7 20
29 0 32 -7 41 -27 34z m17 -28 c0 -14 -4 -25 -10 -25 -11 0 -14 33 -3 43 11
11 13 8 13 -18z"/>
<path d="M1927 2300 c-78 -6 -91 -10 -117 -35 -17 -16 -30 -37 -30 -47 0 -10
-6 -18 -12 -18 -7 0 -5 -5 5 -11 9 -5 17 -17 17 -24 0 -8 4 -15 9 -15 5 0 7 9
4 20 -3 11 -9 20 -13 20 -16 0 2 39 31 66 26 25 38 28 121 34 53 4 110 3 133
-3 22 -6 63 -9 92 -8 35 1 61 -3 78 -15 14 -9 28 -14 31 -12 2 3 -7 13 -21 22
-18 12 -44 17 -83 15 -31 -1 -77 3 -102 9 -25 6 -47 11 -50 10 -3 0 -45 -4
-93 -8z"/>
<path d="M2605 2270 l-40 -7 43 -2 c23 0 42 4 42 9 0 6 -1 9 -2 9 -2 -1 -21
-5 -43 -9z"/>
<path d="M355 2245 c3 -16 16 -38 29 -49 22 -17 23 -20 9 -47 -31 -63 -44
-262 -19 -319 8 -21 15 -27 18 -18 3 8 0 22 -8 33 -27 37 -11 248 24 307 16
28 16 29 -10 51 -15 12 -32 33 -38 47 -10 24 -10 24 -5 -5z"/>
<path d="M1051 2261 c-29 -8 -34 -32 -19 -84 9 -31 17 -39 48 -47 56 -15 96
-3 121 36 l20 33 33 -21 c21 -14 32 -28 29 -38 -4 -11 -3 -12 4 -2 8 10 15 10
36 -1 15 -8 24 -16 21 -20 -3 -3 4 -8 15 -12 11 -3 22 -14 24 -23 4 -13 5 -12
6 4 0 12 -6 24 -14 28 -8 3 -15 10 -15 15 0 12 32 2 42 -13 4 -6 9 -8 12 -5 8
7 -9 30 -25 32 -8 2 -20 7 -28 11 -10 6 -12 5 -7 -2 14 -23 -23 -11 -73 23
-28 19 -55 35 -60 35 -5 0 -19 -15 -30 -34 -38 -61 -126 -57 -149 8 -22 59 -2
76 89 76 37 0 50 -5 63 -22 9 -13 15 -17 13 -8 -1 8 -9 20 -17 27 -16 13 -99
16 -139 4z"/>
<path d="M1513 2258 c-12 -6 -24 -20 -27 -32 -3 -12 -26 -65 -51 -118 -52
-111 -119 -188 -190 -219 -43 -19 -152 -35 -293 -44 -29 -1 -55 -5 -58 -8 -7
-7 74 -2 208 12 67 6 116 18 153 35 63 28 141 103 162 156 8 19 28 63 44 96
16 34 29 67 29 73 0 25 44 51 86 51 66 0 86 -25 129 -161 32 -100 44 -123 87
-172 71 -81 109 -96 292 -113 83 -8 166 -19 184 -25 18 -6 35 -9 38 -7 10 11
-84 29 -223 42 -176 17 -208 29 -278 108 -53 60 -62 78 -102 203 -35 113 -55
135 -120 134 -26 0 -58 -5 -70 -11z"/>
<path d="M2070 2261 c58 -9 146 -51 188 -90 18 -17 38 -31 44 -31 6 0 1 8 -10
19 -12 10 -19 21 -17 25 3 3 2 4 -1 1 -4 -2 -20 6 -35 20 -38 32 -131 65 -177
64 -37 -2 -36 -2 8 -8z"/>
<path d="M2184 2255 c22 -8 52 -23 67 -34 16 -12 31 -21 34 -21 4 0 28 -15 53
-32 26 -18 48 -33 50 -34 2 -1 -1 -11 -7 -21 -12 -24 -79 -29 -107 -8 -17 13
-17 14 -1 15 16 0 16 1 -1 18 -49 49 -183 112 -239 112 -40 0 -83 -19 -83 -37
0 -9 7 -7 23 7 18 18 31 21 68 17 51 -4 142 -44 134 -58 -3 -5 -14 -3 -25 3
-22 14 -50 -4 -50 -32 0 -21 -19 -30 -65 -30 -60 0 -101 32 -96 75 1 6 -5 2
-12 -7 -8 -10 -16 -15 -19 -12 -4 3 -9 0 -14 -7 -5 -9 -1 -10 16 -6 16 4 23 1
27 -13 6 -22 52 -40 104 -40 50 0 69 8 69 30 0 10 7 23 15 30 12 10 21 7 51
-19 19 -18 53 -39 75 -47 21 -9 36 -21 33 -26 -4 -6 1 -8 14 -4 12 4 49 7 83
7 37 1 57 4 49 9 -7 4 -19 6 -27 3 -11 -4 -12 1 -8 19 6 22 -1 30 -43 62 -27
20 -57 36 -66 36 -9 0 -16 4 -16 10 0 12 -82 50 -107 50 -10 -1 0 -7 21 -15z
m38 -94 c32 -16 45 -41 21 -41 -18 0 -63 38 -63 53 0 5 3 7 8 5 4 -2 19 -10
34 -17z"/>
<path d="M538 2226 c-15 -8 -38 -16 -50 -18 -54 -7 -84 -148 -74 -345 4 -91 2
-123 -7 -126 -16 -5 -50 43 -77 109 -18 43 -20 57 -10 69 6 8 9 19 5 25 -4 6
-1 18 6 26 6 8 9 17 6 20 -8 8 -30 -36 -33 -67 -4 -32 36 -138 65 -175 22 -28
27 -82 15 -157 -9 -52 -30 -42 -26 13 3 28 -1 46 -10 51 -22 14 -34 9 -14 -6
14 -11 17 -22 13 -49 -4 -26 -1 -38 13 -51 18 -16 19 -15 31 27 6 23 11 70 10
102 -2 53 -1 58 13 47 9 -8 16 -20 16 -27 0 -8 9 -22 20 -31 13 -11 18 -25 15
-42 -5 -23 -4 -23 6 3 10 26 9 31 -11 46 -19 14 -24 32 -32 111 -15 143 -4
311 24 368 24 49 30 51 103 37 24 -5 23 -4 -5 5 l-35 11 28 15 c15 8 42 13 60
11 31 -3 32 -4 38 -65 3 -34 13 -72 21 -85 17 -25 55 -33 55 -11 0 7 -4 13 -8
13 -13 0 -19 31 -9 50 8 16 8 18 -5 14 -18 -7 -20 -45 -3 -62 9 -9 9 -12 0
-12 -19 0 -36 42 -42 105 l-5 60 -40 3 c-22 1 -52 -4 -67 -12z"/>
<path d="M2647 2233 c-4 -3 -7 -19 -7 -35 0 -24 4 -28 28 -27 24 2 24 2 4 6
-17 3 -22 10 -20 25 4 30 26 34 31 6 4 -20 4 -20 6 5 1 20 -4 27 -17 27 -10 0
-22 -3 -25 -7z"/>
<path d="M2886 2171 c-18 -7 -18 -8 -2 -14 16 -6 17 -16 11 -80 -7 -76 -13
-101 -69 -317 -101 -390 -106 -407 -127 -394 -7 4 -7 10 0 18 5 6 15 61 21
121 17 173 21 194 31 200 5 4 9 16 9 28 0 19 -2 18 -15 -7 -9 -17 -20 -75 -25
-130 -13 -135 -21 -188 -31 -208 -6 -10 -5 -19 2 -23 7 -5 5 -15 -5 -31 -9
-13 -16 -33 -16 -44 0 -24 -28 -146 -40 -175 -5 -11 -11 -31 -13 -45 -6 -30
-36 -119 -48 -140 -5 -8 -12 -22 -15 -30 -3 -8 -12 -31 -20 -50 l-14 -35 20
24 c11 13 20 31 20 42 0 10 4 20 9 23 5 4 17 32 27 64 9 31 20 62 24 67 4 6
10 24 13 40 3 17 14 67 26 113 12 46 21 90 21 98 0 9 13 34 30 57 20 29 39 81
60 162 17 66 47 181 66 255 20 74 42 160 50 190 11 46 29 232 21 229 -1 0 -11
-4 -21 -8z"/>
<path d="M2665 2140 c-3 -5 0 -20 6 -32 13 -24 32 -374 22 -391 -9 -16 -22
-151 -15 -164 4 -6 8 20 10 58 3 78 25 146 49 151 12 2 17 19 20 68 5 76 14
90 33 54 12 -22 12 -32 -2 -72 -19 -52 -18 -66 1 -24 8 15 17 34 21 42 9 18
-3 53 -30 87 -14 18 -20 41 -20 77 0 29 -4 56 -9 62 -5 5 -11 25 -12 44 -2 19
-8 38 -14 42 -15 11 -53 10 -60 -2z m60 -27 c3 -16 10 -44 15 -63 23 -87 15
-265 -12 -282 -20 -12 -26 24 -27 152 -1 64 -7 139 -15 168 -13 52 -13 52 10
52 18 0 25 -7 29 -27z"/>
<path d="M1736 2122 c-6 -10 22 -117 29 -110 2 2 -2 25 -10 50 -7 25 -11 49
-8 52 10 10 53 7 74 -4 13 -7 25 -8 37 -1 15 9 15 10 -3 10 -11 0 -41 3 -66 7
-27 4 -49 2 -53 -4z"/>
<path d="M2808 2077 c6 -7 10 -27 10 -44 -1 -38 21 -95 33 -87 5 3 2 15 -6 27
-8 12 -15 36 -15 53 0 39 -9 64 -22 64 -7 0 -7 -4 0 -13z"/>
<path d="M1290 2034 c-38 -14 -87 -24 -119 -24 -30 0 -52 -2 -49 -5 3 -3 30
-6 59 -6 47 0 86 11 173 46 16 7 17 6 7 -13 -15 -28 -25 -33 -85 -42 l-51 -8
52 -1 c41 -1 57 4 75 22 26 25 35 58 16 56 -7 -1 -42 -12 -78 -25z"/>
<path d="M1770 2055 c0 -6 48 -27 70 -31 8 -1 49 -15 90 -30 61 -23 94 -28
178 -30 56 -1 115 2 130 7 21 7 17 7 -18 3 -33 -4 -41 -2 -30 5 8 6 24 11 36
11 24 0 74 22 74 32 0 4 -7 5 -15 2 -8 -4 -15 -1 -15 5 0 6 7 11 15 11 8 0 15
4 15 9 0 18 -39 -2 -42 -21 -2 -15 -16 -25 -53 -35 -111 -32 -192 -26 -303 23
-29 13 -56 23 -60 22 -4 -1 -20 4 -35 10 -32 13 -37 14 -37 7z"/>
<path d="M690 2035 c0 -9 141 -45 235 -61 96 -16 389 -24 402 -11 3 3 -68 6
-158 6 -99 0 -194 6 -239 14 -51 10 -64 15 -41 16 46 1 37 7 -24 14 -34 4 -42
3 -25 -3 l25 -8 -25 0 c-14 0 -34 3 -45 8 -19 8 -19 9 -1 9 11 1 17 4 13 7 -6
7 -117 15 -117 9z m87 -11 c-3 -3 -12 -4 -19 -1 -8 3 -5 6 6 6 11 1 17 -2 13
-5z"/>
<path d="M1786 1980 c21 -21 120 -41 194 -39 28 1 11 5 -45 11 -51 5 -107 17
-129 28 -39 19 -39 19 -20 0z"/>
<path d="M1865 1930 c52 -12 361 -12 445 0 58 8 55 8 -30 3 -113 -6 -323 -5
-400 1 -50 5 -52 4 -15 -4z"/>
<path d="M1850 1910 c8 -5 26 -9 40 -9 l25 1 -25 8 c-14 4 -32 8 -40 9 -13 1
-13 0 0 -9z"/>
<path d="M1395 1699 c-17 -8 -16 -9 6 -4 26 5 39 -6 69 -55 14 -22 184 -19
209 4 21 19 42 21 39 4 -2 -6 6 -13 17 -15 11 -1 14 0 8 3 -7 3 -13 12 -13 19
0 22 -25 24 -51 4 -26 -20 -69 -26 -69 -9 0 11 -26 23 -75 34 -19 4 -25 3 -16
-2 8 -6 9 -12 3 -16 -6 -3 -13 -2 -17 4 -3 5 -11 10 -18 10 -6 0 -2 -6 8 -14
14 -10 23 -11 36 -3 13 8 25 8 43 -1 41 -18 31 -32 -23 -32 -50 0 -60 5 -95
54 -20 28 -29 30 -61 15z"/>
<path d="M1342 1630 c-13 -5 -21 -14 -18 -18 3 -5 -3 -18 -13 -29 -19 -20 -19
-20 15 -37 43 -20 50 -20 34 -1 -7 8 -19 15 -26 15 -17 0 -17 5 -3 33 23 42
62 49 100 17 l24 -19 -35 2 c-19 1 -39 7 -43 12 -5 6 -7 4 -4 -5 5 -21 98 -21
118 -1 11 13 11 14 -5 8 -12 -5 -25 -2 -36 8 -22 20 -78 28 -108 15z"/>
<path d="M1665 1594 c-22 -8 -45 -12 -52 -10 -7 3 -13 1 -13 -4 0 -15 51 -11
80 5 37 21 52 18 97 -17 l42 -31 -40 -29 c-21 -15 -43 -28 -48 -28 -15 0 -29
-31 -23 -52 5 -22 -22 -47 -53 -48 -11 -1 -15 -4 -7 -7 7 -3 27 2 45 10 18 8
39 17 47 20 12 4 11 6 -2 6 -10 1 -18 8 -18 16 0 8 -1 18 -1 22 -1 4 10 15 23
23 64 38 88 55 88 60 0 3 -15 20 -33 38 -39 38 -79 46 -132 26z"/>
<path d="M1675 1570 c-7 -11 63 -18 78 -7 9 6 8 7 -3 4 -8 -2 -27 0 -42 4 -15
4 -30 4 -33 -1z"/>
<path d="M1312 1411 c13 -22 23 -25 79 -27 35 -2 96 -7 135 -11 40 -5 80 -6
90 -2 11 3 -8 7 -40 8 -33 0 -88 6 -123 12 -35 6 -75 8 -89 5 -19 -5 -30 -1
-46 16 l-20 23 14 -24z"/>
<path d="M1620 1410 c-6 -11 -8 -20 -5 -20 3 0 14 9 25 20 15 15 16 20 5 20
-8 0 -19 -9 -25 -20z"/>
<path d="M1380 1325 c-25 -8 -76 -25 -114 -40 -38 -14 -85 -25 -105 -24 -56 3
-61 1 -60 -23 0 -20 1 -21 8 -5 5 15 19 19 61 21 34 1 82 13 125 32 60 25 82
29 155 28 54 0 72 2 50 6 -19 4 -44 9 -55 12 -11 3 -40 0 -65 -7z"/>
<path d="M1546 1310 c3 -2 33 -3 67 -2 62 3 87 -3 186 -51 28 -13 76 -23 128
-27 46 -4 86 -10 91 -14 4 -4 -4 -16 -17 -27 -27 -22 -91 -25 -204 -8 -50 7
-85 8 -110 1 -20 -6 -56 -7 -79 -4 l-43 7 55 6 c44 5 36 6 -40 6 -69 0 -84 -2
-55 -7 23 -4 -28 -7 -125 -7 -91 1 -192 0 -225 -2 -55 -2 -61 0 -82 26 -29 36
-30 70 -2 78 11 4 18 9 16 12 -3 2 -15 0 -26 -6 -16 -9 -20 -20 -19 -49 2 -54
32 -74 106 -71 146 5 470 4 597 -2 177 -8 232 -5 254 15 41 37 15 53 -87 55
-49 1 -82 10 -157 42 -86 36 -103 40 -165 37 -38 -1 -67 -5 -64 -8z"/>
<path d="M1310 1233 c14 -2 41 -11 62 -19 20 -9 42 -14 50 -11 8 3 5 6 -7 7
-11 0 -29 7 -39 15 -11 8 -36 14 -55 14 -26 -1 -29 -3 -11 -6z"/>
<path d="M2590 1131 c-5 -11 -10 -29 -10 -41 0 -11 -11 -31 -24 -43 -27 -25
-33 -44 -22 -69 4 -9 1 -29 -8 -47 -23 -43 -19 -63 4 -21 14 25 18 46 14 72
-4 30 -2 38 14 47 20 10 47 69 37 79 -3 3 2 14 12 24 9 10 11 18 5 18 -6 0
-16 -9 -22 -19z"/>
<path d="M1439 1058 c-5 -18 -2 -75 4 -71 4 2 7 17 7 34 l0 29 69 0 c76 0 101
-6 101 -24 0 -6 9 -17 20 -24 11 -7 20 -21 20 -31 0 -27 -37 -70 -76 -86 -30
-12 -39 -12 -70 1 -20 8 -38 23 -41 33 -6 22 -60 64 -67 52 -3 -4 6 -14 20
-22 23 -12 49 -52 46 -70 -1 -3 10 -4 23 -1 14 2 25 0 25 -6 0 -12 51 -8 79 7
11 6 43 11 72 11 29 0 49 3 45 7 -4 4 -23 6 -43 4 -35 -3 -35 -3 -19 20 22 31
20 65 -4 89 -11 11 -20 24 -20 29 0 5 -10 11 -22 15 -22 5 -167 9 -169 4z"/>
<path d="M2502 788 c-35 -69 -44 -118 -49 -285 -3 -94 -2 -179 2 -190 5 -10 8
-21 7 -25 -1 -4 -6 -42 -11 -85 -5 -47 -19 -101 -36 -136 -14 -33 -24 -61 -21
-64 7 -7 44 77 56 128 5 24 13 70 16 102 l6 59 23 -22 c13 -12 56 -64 97 -115
51 -65 89 -103 126 -125 29 -18 56 -30 58 -27 3 3 -19 19 -48 37 -34 21 -74
59 -113 108 -33 43 -82 101 -109 129 l-49 53 6 172 c6 182 24 266 64 296 14
10 14 12 2 12 -9 0 -21 -10 -27 -22z"/>
<path d="M2375 600 c-3 -5 7 -7 26 -5 42 5 50 15 11 15 -17 0 -33 -4 -37 -10z"/>
<path d="M2410 550 c0 -16 2 -30 4 -30 2 0 6 14 8 30 3 17 1 30 -4 30 -4 0 -8
-13 -8 -30z"/>
<path d="M2362 514 c-23 -22 -23 -22 -2 -17 12 3 24 12 27 20 9 22 0 21 -25
-3z"/>
<path d="M2374 452 c-2 -35 -1 -35 12 -11 17 30 17 36 2 42 -9 3 -13 -7 -14
-31z"/>
<path d="M2320 384 c-7 -20 -27 -49 -44 -64 -98 -87 -114 -100 -123 -100 -6 0
-16 -7 -23 -15 -11 -13 -9 -14 17 -3 34 15 171 128 172 143 1 6 8 22 15 37 8
15 11 30 6 33 -5 3 -14 -11 -20 -31z"/>
<path d="M571 212 c0 -7 -18 -36 -38 -65 -75 -106 -95 -138 -90 -143 3 -3 14
7 24 23 9 15 39 59 66 96 27 38 46 76 44 85 -3 10 -5 11 -6 4z"/>
<path d="M2486 204 c-9 -24 -7 -34 8 -34 26 0 41 -33 47 -104 l6 -71 1 70 c1
47 -3 76 -13 89 -8 10 -12 22 -10 27 3 4 -4 5 -16 2 -18 -5 -20 -3 -14 16 7
24 0 29 -9 5z"/>
<path d="M591 186 c-1 -27 28 -136 44 -166 8 -14 14 -19 15 -12 0 7 -5 22 -11
33 -5 11 -19 52 -29 92 -10 40 -19 64 -19 53z"/>
</g>
</svg>
